<svg width="29" height="28" viewBox="0 0 29 28" fill="none" xmlns="http://www.w3.org/2000/svg">
    <path d="M26.529 9.3173L26.529 24.1227C26.529 25.8396 25.1429 27.2284 23.4295 27.2284C21.716 27.2284 20.33 25.8396 20.33 24.1227L20.33 9.3173C20.33 7.60038 18.9439 6.21153 17.2305 6.21153H11.026C9.31258 6.21153 7.92654 7.60038 7.92654 9.3173C7.92654 11.0342 6.5405 12.4231 4.82704 12.4231C3.11359 12.4231 1.72754 11.0342 1.72754 9.3173C1.72754 7.60038 3.11359 6.21153 4.82704 6.21153C6.5405 6.21153 7.92654 4.82269 7.92654 3.10577C7.92654 1.38885 9.31258 0 11.026 0H17.225C18.9385 0 20.3245 1.38885 20.3245 3.10577C20.3245 4.82269 21.7106 6.21153 23.424 6.21153C25.1375 6.21153 26.529 7.60038 26.529 9.3173Z" fill="#fff"/>
    <path d="M7.68517 27.182C5.99847 26.7291 4.9991 24.9947 5.45105 23.3046C5.903 21.6145 4.90362 19.88 3.21693 19.4271C1.53023 18.9743 0.530857 17.2398 0.982806 15.5497C1.43476 13.8596 3.16572 12.8582 4.85242 13.3111C6.53911 13.7639 8.26622 12.7558 8.71817 11.0657C9.17012 9.37562 10.9011 8.37422 12.5878 8.82709C14.2745 9.27995 15.2739 11.0144 14.8219 12.7045C14.37 14.3946 12.639 15.396 10.9523 14.9432C9.2656 14.4903 7.53463 15.4917 7.08268 17.1818C6.63073 18.8719 7.63011 20.6064 9.3168 21.0592C11.0035 21.5121 12.0029 23.2466 11.5509 24.9367C11.099 26.6268 9.37187 27.6349 7.68517 27.182Z" fill="#fff"/>
</svg>
